<?xml version="1.0" standalone="no"?>
<!DOCTYPE svg PUBLIC "-//W3C//DTD SVG 20010904//EN"
 "http://www.w3.org/TR/2001/REC-SVG-20010904/DTD/svg10.dtd">
<svg version="1.0" xmlns="http://www.w3.org/2000/svg"
 width="884.000000pt" height="884.000000pt" viewBox="0 0 884.000000 884.000000"
 preserveAspectRatio="xMidYMid meet">
<metadata>
Created by potrace 1.14, written by Peter Selinger 2001-2017
</metadata>
<g transform="translate(0.000000,884.000000) scale(0.100000,-0.100000)"
fill="#000000" stroke="none">
<path d="M4290 8235 c-36 -7 -93 -24 -125 -38 -69 -29 -49 -18 -595 -334 -376
-218 -1513 -872 -2110 -1214 -206 -118 -244 -144 -316 -214 -65 -64 -89 -97
-123 -165 -75 -156 -72 -53 -69 -1961 3 -1893 -3 -1729 75 -1889 27 -55 56
-94 112 -150 82 -80 54 -63 746 -460 638 -366 1587 -913 1875 -1080 419 -243
431 -249 580 -271 161 -23 293 14 526 148 76 44 380 219 674 388 521 300 1054
607 1685 970 171 98 340 198 377 222 129 85 223 218 265 373 17 61 18 175 18
1795 0 1648 -1 1733 -18 1795 -32 113 -83 197 -172 285 -78 78 -101 91 -715
444 -684 393 -1428 821 -1900 1094 -162 94 -331 188 -375 209 -135 64 -271 82
-415 53z m1043 -1592 c2 -5 -31 -125 -74 -268 -98 -329 -433 -1459 -909 -3060
-204 -687 -373 -1251 -374 -1252 -2 -2 -109 -2 -238 -1 l-235 3 393 1330 c548
1850 591 1995 784 2650 94 319 173 586 175 593 3 9 60 12 239 12 129 0 237 -3
239 -7z m-1903 -785 l0 -283 -63 -65 c-35 -36 -267 -285 -517 -555 -249 -269
-477 -515 -507 -546 l-55 -56 529 -569 c290 -312 547 -589 571 -615 l42 -47
-2 -282 -3 -281 -245 263 c-135 144 -339 364 -455 488 -115 124 -326 350 -467
502 -142 152 -274 295 -294 319 l-35 42 3 187 3 186 210 225 c377 403 857 919
1066 1146 112 121 207 222 212 222 4 1 7 -126 7 -281z m2048 220 c32 -35 186
-200 342 -368 156 -168 313 -336 349 -375 246 -259 718 -770 728 -788 9 -15
13 -78 13 -203 l0 -180 -711 -765 c-391 -420 -728 -782 -750 -804 l-39 -40 0
285 1 285 570 614 571 613 -50 52 c-27 28 -284 304 -571 613 l-521 563 0 280
c0 154 2 280 4 280 2 0 31 -28 64 -62z"/>
</g>
</svg>
